<?xml version="1.0" encoding="UTF-8"?>
<!DOCTYPE svg PUBLIC "-//W3C//DTD SVG 1.1//EN" "http://www.w3.org/Graphics/SVG/1.1/DTD/svg11.dtd">
<!-- Creator: CorelDRAW 2017 -->
<svg xmlns="http://www.w3.org/2000/svg" xml:space="preserve" width="3306px" height="1040px" version="1.1" style="shape-rendering:geometricPrecision; text-rendering:geometricPrecision; image-rendering:optimizeQuality; fill-rule:evenodd; clip-rule:evenodd"
viewBox="0 0 3238.84 1018.47"
 xmlns:xlink="http://www.w3.org/1999/xlink">
 <defs>
  <style type="text/css">
   <![CDATA[
    .fil0 {fill:#E62129}
    .fil1 {fill:#FEFEFE}
   ]]>
  </style>
 </defs>
 <g id="Layer_x0020_1">
  <metadata id="CorelCorpID_0Corel-Layer"/>
  <path class="fil0" d="M801.62 735.56l83.6 0c61.95,0 112.63,-50.12 112.63,-111.37l0 -185.81c0,-61.26 -50.68,-111.37 -112.63,-111.37l-59.19 0 -26.28 -145.33c-6.98,-38.63 -44.66,-70.23 -83.72,-70.23l-366.78 0 -1.42 -7.9c-10.3,-56.95 28.4,-103.55 86,-103.55l339.39 0c57.6,0 113.15,46.6 123.45,103.55l21.99 121.61 21.75 0c92.59,0 168.34,74.91 168.34,166.45l0 277.7c0,91.54 -75.75,166.45 -168.34,166.45l-187.61 0c-73.72,110.17 -199.28,182.71 -341.8,182.71 -226.99,0 -411,-184.01 -411,-411 0,-226.99 184.01,-411 411,-411 226.99,0 411,184.01 411,411 0,44.73 -7.17,87.78 -20.38,128.09l0 0zm864.18 -412.24l-39.7 0 0 -155.08 44.25 0c17.28,0 29.43,0.83 36.44,2.53 6.98,1.7 12.9,4.59 17.78,8.67 5.72,4.74 10.09,10.67 13.09,17.75 3,7.12 4.48,15 4.48,23.68 0,9.25 -1.48,17.39 -4.44,24.4 -2.97,7.05 -7.34,12.8 -13.13,17.32 -4.37,3.39 -9.54,5.82 -15.47,7.3 -5.93,1.48 -15.43,2.24 -28.48,2.24l-7.2 0 -7.62 0 0 51.19 0 0zm0 -85.24l8.06 0c10.16,0 17.24,-1.41 21.25,-4.2 4.02,-2.78 6.04,-7.52 6.04,-14.24 0,-6.51 -1.99,-11.13 -5.93,-13.88 -3.94,-2.75 -10.95,-4.12 -20.97,-4.12l-8.45 0 0 36.44 0 0zm97.78 85.24l0 -155.08 42.29 0 0 60.29 56.4 0 0 -60.29 42.29 0 0 155.08 -42.29 0 0 -63.12 -56.4 0 0 63.12 -42.29 0zm333.11 -77.22c0,11.17 -2.06,21.62 -6.14,31.34 -4.09,9.76 -10.05,18.47 -17.9,26.18 -7.91,7.62 -16.95,13.48 -27.11,17.64 -10.16,4.12 -20.71,6.18 -31.63,6.18 -11.09,0 -21.72,-2.06 -31.85,-6.18 -10.12,-4.16 -19.01,-10.02 -26.71,-17.64 -7.99,-7.71 -14.03,-16.45 -18.18,-26.29 -4.12,-9.79 -6.18,-20.2 -6.18,-31.23 0,-11.1 2.06,-21.51 6.18,-31.3 4.15,-9.76 10.19,-18.51 18.18,-26.21 7.7,-7.63 16.59,-13.49 26.71,-17.64 10.13,-4.12 20.76,-6.19 31.85,-6.19 10.99,0 21.62,2.07 31.81,6.19 10.2,4.15 19.16,10.01 26.93,17.64 7.78,7.63 13.71,16.34 17.86,26.17 4.12,9.8 6.18,20.24 6.18,31.34zm-82.85 45.55c11.71,0 21.4,-4.3 29.06,-12.91 7.67,-8.64 11.5,-19.52 11.5,-32.64 0,-12.98 -3.87,-23.82 -11.64,-32.53 -7.77,-8.68 -17.42,-13.02 -28.92,-13.02 -11.71,0 -21.4,4.34 -29.06,12.98 -7.67,8.64 -11.5,19.52 -11.5,32.57 0,13.27 3.76,24.18 11.32,32.72 7.55,8.56 17.31,12.83 29.24,12.83l0 0zm127.86 31.67l0 -118.43 -34.7 0 0 -36.65 111.7 0 0 36.65 -34.71 0 0 118.43 -42.29 0zm253.04 -77.22c0,11.17 -2.06,21.62 -6.14,31.34 -4.09,9.76 -10.05,18.47 -17.89,26.18 -7.92,7.62 -16.96,13.48 -27.12,17.64 -10.15,4.12 -20.71,6.18 -31.63,6.18 -11.09,0 -21.72,-2.06 -31.84,-6.18 -10.13,-4.16 -19.02,-10.02 -26.72,-17.64 -7.99,-7.71 -14.02,-16.45 -18.18,-26.29 -4.12,-9.79 -6.18,-20.2 -6.18,-31.23 0,-11.1 2.06,-21.51 6.18,-31.3 4.16,-9.76 10.19,-18.51 18.18,-26.21 7.7,-7.63 16.59,-13.49 26.72,-17.64 10.12,-4.12 20.75,-6.19 31.84,-6.19 10.99,0 21.62,2.07 31.82,6.19 10.19,4.15 19.15,10.01 26.93,17.64 7.77,7.63 13.7,16.34 17.85,26.17 4.12,9.8 6.18,20.24 6.18,31.34l0 0zm-82.85 45.55c11.71,0 21.4,-4.3 29.07,-12.91 7.66,-8.64 11.49,-19.52 11.49,-32.64 0,-12.98 -3.87,-23.82 -11.64,-32.53 -7.77,-8.68 -17.42,-13.02 -28.92,-13.02 -11.71,0 -21.4,4.34 -29.06,12.98 -7.67,8.64 -11.5,19.52 -11.5,32.57 0,13.27 3.76,24.18 11.32,32.72 7.55,8.56 17.31,12.83 29.24,12.83l0 0zm-1900.89 38.22c153.31,0 277.6,124.29 277.6,277.6 0,153.31 -124.29,277.6 -277.6,277.6 -153.31,0 -277.6,-124.29 -277.6,-277.6 0,-153.31 124.29,-277.6 277.6,-277.6zm24.29 67.92c7.57,0 15.06,0.39 22.43,1.14l-21.41 99.16c-0.34,0 -0.68,-0.01 -1.02,-0.01 -65.11,0 -117.9,52.79 -117.9,117.9 0,28.28 9.96,54.23 26.56,74.54l-63.25 79.43c-39.3,-39.46 -63.6,-93.88 -63.6,-153.97 0,-120.5 97.69,-218.19 218.19,-218.19l0 0z"/>
  <path class="fil1" d="M1252.2 220.59l57.1 0 199.86 0 0 53.42c0,29.39 -24.04,53.43 -53.42,53.43l-146.44 0 0 453.57c0,31.41 -25.69,57.1 -57.09,57.1l-57.1 0 0 -560.43c0,-7.78 1.58,-15.21 4.43,-21.99 7.52,-20.43 27.21,-35.1 50.17,-35.1l2.49 0zm142.77 195.43l57.1 0c31.4,0 57.09,25.69 57.09,57.1l0 258.14 116.94 0 0 -258.15c0,-31.4 25.7,-57.09 57.1,-57.09l57.09 0 0 364.99c0,7.71 -1.55,15.07 -4.35,21.79 -7.46,20.54 -27.21,35.31 -50.24,35.31l-2.5 0 -57.1 0 -116.94 0 0 0 -57.09 0c-0.02,0 -0.03,0 -0.05,0l-3.04 0c-26.83,0 -49.2,-20.04 -52.89,-45.88 -0.73,-3.63 -1.12,-7.38 -1.12,-11.22l0 -364.99zm1131.39 -88.58l178.94 0 0 88.58 -173.99 0c-0.01,0 -0.03,0 -0.05,0l0 0c-0.01,0 -0.03,0 -0.05,0l-3.04 0c-26.82,0 -49.18,20.03 -52.88,45.87 -0.74,3.63 -1.12,7.39 -1.12,11.23l0 364.99 54 0 3.09 0 231.13 0 0 0 2.51 0c23.03,0 42.78,-14.77 50.24,-35.3 2.8,-6.73 4.35,-14.09 4.35,-21.8l0 -453.57 0 -49.76 0 -3.67c0,-29.38 -24.04,-53.42 -53.43,-53.42l-3.61 0c-0.02,0 -0.04,0 -0.06,0l0 0c-0.01,0 -0.03,0 -0.05,0l-289.41 0 0 53.42c0,29.39 24.04,53.43 53.43,53.43zm659.05 88.58l-3.62 0c-0.01,0 -0.03,0 -0.05,0l0 0c-0.01,0 -0.03,0 -0.05,0l-172.24 0 0 -138.34c0,-31.4 -25.69,-57.09 -57.09,-57.09l0 0c-31.41,0 -57.1,25.69 -57.1,57.09l0 191.77 0 0 0 311.56c0,31.41 25.69,57.1 57.1,57.1l57.09 0 0 -315.24 115.2 0 0 315.24 57.09 0c31.41,0 57.1,-25.69 57.1,-57.1l0 -307.89c0,-0.63 -0.01,-1.25 -0.04,-1.87 0.03,-0.6 0.04,-1.2 0.04,-1.8l0 0c0,-29.39 -24.04,-53.43 -53.43,-53.43l0 0zm-597.05 315.24l116.94 0 0 -208.39 -116.94 0 0 208.39zm-188.79 106.85l-57.09 0c-31.4,0 -57.1,-25.69 -57.1,-57.1l0 -258.14 -115.17 0 0 258.14c0,31.41 -25.69,57.1 -57.1,57.1l0 0c-31.4,0 -57.09,-25.69 -57.09,-57.1l0 -258.14 -114.59 0 0 258.14c0,31.41 -25.69,57.1 -57.09,57.1l-57.1 0 0 -364.99c0,-0.49 0.01,-0.98 0.02,-1.47l0 0 0 0c0.01,-0.49 0.03,-0.97 0.06,-1.45l0 -0.02c0.02,-0.48 0.05,-0.95 0.09,-1.43l0 -0.03c0.04,-0.47 0.08,-0.93 0.13,-1.4l0 -0.04c0.05,-0.47 0.1,-0.92 0.16,-1.38l0.01 -0.06c0.05,-0.45 0.12,-0.91 0.19,-1.36l0.01 -0.07c0.07,-0.44 0.14,-0.89 0.22,-1.33l0.02 -0.08c0.07,-0.44 0.16,-0.88 0.25,-1.31l0 0 0 0c3.79,-25.74 26.1,-45.67 52.85,-45.67l3.03 0 0.01 0 0 0 0 0 0 0 0 0 0 0 0 0 0 0 0 0 0.01 0 0 0 0 0 0 0 0 0 0 0 0 0 0 0 0 0 0 0 0.01 0 0 0 0 0 0 0 0 0 0 0 0 0 0 0 0 0 0 0 0 0 0 0 0 0 0.01 0 0 0 0 0 0 0 0 0 0 0 0 0 0 0 0 0 0.01 0 0 0 0 0 0 0 0 0 0 0 0 0 0 0 0 0 0.01 0 0 0 57.09 0 0 0 171.63 0c0.02,0 0.04,0 0.05,0l0 0c0.02,0 0.04,0 0.05,0l172.22 0 0 0 57.1 0c0.02,0 0.03,0 0.05,0l3.03 0c26.76,0 49.08,19.93 52.86,45.68 0.76,3.69 1.15,7.51 1.15,11.42l0 364.99 0 0z"/>
 </g>
</svg>
