<?xml version="1.0" encoding="UTF-8"?>
<!DOCTYPE svg PUBLIC "-//W3C//DTD SVG 1.1//EN" "http://www.w3.org/Graphics/SVG/1.1/DTD/svg11.dtd">
<!-- Creator: CorelDRAW 2017 -->
<svg xmlns="http://www.w3.org/2000/svg" xml:space="preserve" width="59252px" height="18632px" version="1.1" style="shape-rendering:geometricPrecision; text-rendering:geometricPrecision; image-rendering:optimizeQuality; fill-rule:evenodd; clip-rule:evenodd"
viewBox="0 0 307061.44 96557.32"
 xmlns:xlink="http://www.w3.org/1999/xlink">
 <defs>
  <style type="text/css">
   <![CDATA[
    .fil1 {fill:#FEFEFE}
    .fil0 {fill:#E62129}
   ]]>
  </style>
 </defs>
 <g id="Layer_x0020_1">
  <metadata id="CorelCorpID_0Corel-Layer"/>
  <path class="fil0" d="M75998.22 69735.51l7925.69 0c5873.41,0 10678.73,-4751.44 10678.73,-10558.86l0 -17615.49c0,-5807.42 -4805.32,-10558.85 -10678.73,-10558.85l-5611.12 0 -2491.4 -13778.41c-662.17,-3661.99 -4234.09,-6658.15 -7937.7,-6658.15l-34772.35 0 -135.38 -748.74c-976.31,-5399.39 2692.62,-9817.01 8153.32,-9817.01l32177.01 0c5460.7,0 10727.24,4417.62 11703.55,9817.01l2084.81 11529.94 2062.01 0c8777.85,0 15959.66,7101.18 15959.66,15780.5l0 26326.84c0,8679.26 -7181.86,15780.5 -15959.66,15780.5l-17786.49 0c-6989.05,10444.93 -18893.53,17322.53 -32404.83,17322.53 -21519.89,0 -38965.34,-17445.39 -38965.34,-38965.35 0,-21519.95 17445.45,-38965.34 38965.34,-38965.34 21519.89,0 38965.35,17445.39 38965.35,38965.34 0,4240.55 -679.98,8321.71 -1932.47,12143.54zm81929.23 -39083.17l-3763.06 0 0 -14702.55 4194.9 0c1638.2,0 2789.7,78.84 3454.6,239.87 661.45,161.08 1223.48,435.29 1686.15,822.52 541.52,448.96 956.19,1011.05 1240.66,1682.76 284.42,675.16 424.92,1422.31 424.92,2244.78 0,877.39 -140.5,1648.52 -421.52,2313.36 -281.02,668.31 -695.74,1213.23 -1244.06,1641.61 -414.71,322.16 -904.77,551.77 -1466.85,692.28 -562.04,140.51 -1463.41,212.49 -2700.61,212.49l-682.02 0 -723.11 0 0 4852.88zm0 -8081.28l764.26 0c963.04,0 1634.75,-133.65 2015.18,-397.55 380.43,-263.89 572.35,-712.85 572.35,-1350.26 0,-616.9 -188.52,-1055.6 -562.09,-1316.04 -373.52,-260.5 -1038.43,-390.75 -1987.75,-390.75l-801.95 0 0 3454.6zm9270.47 8081.28l0 -14702.55 4009.83 0 0 5716.5 5346.39 0 0 -5716.5 4009.77 0 0 14702.55 -4009.77 0 0 -5983.86 -5346.39 0 0 5983.86 -4009.83 0zm31581.36 -7320.41c0,1058.99 -195.37,2049.41 -582.61,2971.35 -387.29,925.29 -952.78,1751.28 -1696.47,2481.25 -750.54,723.12 -1607.36,1278.35 -2570.4,1672.44 -963.04,390.74 -1963.77,586.06 -2998.73,586.06 -1052.14,0 -2059.73,-195.32 -3019.37,-586.06 -959.58,-394.09 -1802.68,-949.32 -2532.65,-1672.44 -757.41,-729.97 -1329.76,-1559.36 -1723.9,-2491.56 -390.7,-928.75 -586.01,-1915.76 -586.01,-2961.04 0,-1052.14 195.31,-2039.21 586.01,-2967.96 394.14,-925.34 966.49,-1754.73 1723.9,-2484.7 729.97,-723.12 1573.07,-1278.35 2532.65,-1672.44 959.64,-390.69 1967.23,-586.06 3019.37,-586.06 1041.82,0 2049.41,195.37 3015.9,586.06 966.44,394.09 1816.4,949.32 2553.23,1672.44 736.84,723.16 1298.87,1549.1 1693.01,2481.3 390.7,928.75 586.07,1919.22 586.07,2971.36zm-7855.07 4318.22c1110.41,0 2028.89,-407.86 2755.4,-1223.53 726.58,-819.08 1089.89,-1850.64 1089.89,-3094.69 0,-1230.4 -366.71,-2258.51 -1103.6,-3084.49 -736.83,-822.53 -1651.86,-1233.8 -2741.69,-1233.8 -1110.41,0 -2028.89,411.27 -2755.47,1230.4 -726.57,819.07 -1089.82,1850.64 -1089.82,3087.89 0,1257.77 356.4,2292.73 1072.71,3101.55 716.26,812.27 1641.6,1216.67 2772.58,1216.67zm12121.83 3002.19l0 -11227.43 -3290.06 0 0 -3475.12 10589.96 0 0 3475.12 -3290.07 0 0 11227.43 -4009.83 0zm23990.19 -7320.41c0,1058.99 -195.37,2049.41 -582.6,2971.35 -387.29,925.29 -952.78,1751.28 -1696.47,2481.25 -750.55,723.12 -1607.32,1278.35 -2570.35,1672.44 -963.04,390.74 -1963.77,586.06 -2998.73,586.06 -1052.14,0 -2059.73,-195.32 -3019.37,-586.06 -959.58,-394.09 -1802.68,-949.32 -2532.66,-1672.44 -757.4,-729.97 -1329.75,-1559.36 -1723.89,-2491.56 -390.69,-928.75 -586.01,-1915.76 -586.01,-2961.04 0,-1052.14 195.32,-2039.21 586.01,-2967.96 394.14,-925.34 966.49,-1754.73 1723.89,-2484.7 729.98,-723.12 1573.08,-1278.35 2532.66,-1672.44 959.64,-390.69 1967.23,-586.06 3019.37,-586.06 1041.82,0 2049.41,195.37 3015.9,586.06 966.44,394.09 1816.35,949.32 2553.18,1672.44 736.83,723.16 1298.86,1549.1 1693.01,2481.3 390.69,928.75 586.06,1919.22 586.06,2971.36zm-7855.01 4318.22c1110.4,0 2028.89,-407.86 2755.41,-1223.53 726.57,-819.08 1089.89,-1850.64 1089.89,-3094.69 0,-1230.4 -366.72,-2258.51 -1103.61,-3084.49 -736.83,-822.53 -1651.86,-1233.8 -2741.69,-1233.8 -1110.4,0 -2028.89,411.27 -2755.46,1230.4 -726.58,819.07 -1089.83,1850.64 -1089.83,3087.89 0,1257.77 356.4,2292.73 1072.71,3101.55 716.25,812.27 1641.6,1216.67 2772.58,1216.67zm-180215.88 3623.71c14535.11,0 26318.12,11783.01 26318.12,26318.11 0,14535.05 -11783.01,26318 -26318.12,26318 -14535.11,0 -26318.12,-11782.95 -26318.12,-26318 0,-14535.1 11783.01,-26318.11 26318.12,-26318.11zm2302.43 6439.04c718.27,0 1427.93,36.76 2127.31,108.18l-2030.35 9401.26c-32.31,-0.32 -64.5,-1.2 -96.96,-1.2 -6172.91,0 -11177.09,5004.24 -11177.09,11177.16 0,2680.99 944.32,5141.26 2518,7067.11l-5996.36 7530.29c-3726.27,-3740.97 -6029.94,-8900.04 -6029.94,-14597.4 0,-11424.26 9261.2,-20685.4 20685.39,-20685.4z"/>
  <path class="fil1" d="M118716.5 20912.79l5413.02 0 18948.34 0 0 5065.09c0,2785.8 -2279.23,5065.04 -5065.03,5065.04l-13883.31 0 0 43001.94c0,2977.15 -2435.81,5412.96 -5412.97,5412.96l-5413.01 0 0 -53132.07c0,-737.78 149.76,-1442.22 420.1,-2084.68 712.73,-1937.07 2579.99,-3328.28 4756.45,-3328.28l236.41 0zm13535.39 18528.55l5413.02 0c2977.14,0 5412.95,2435.81 5412.95,5412.96l0 24473.34 11086.53 0 0 -24473.78c0,-2977.21 2435.82,-5413.02 5412.97,-5413.02l5413.02 0 0 34603.96c0,730.63 -147,1428.5 -412.4,2065.92 -707.59,1946.8 -2579.7,3347.05 -4763.15,3347.05l-237.41 0 -5413.03 0 -11086.53 0 0 0.05 -5413.02 0c-1.44,0 -2.87,-0.05 -4.32,-0.05l-288.9 0c-2543.11,0 -4663.7,-1899.54 -5013.93,-4349.8 -69.22,-344.02 -105.8,-699.49 -105.8,-1063.11l0 -34603.52zm107262.08 -8398.37l16964.67 0 0 8398.43 -16494.75 0c-1.61,0 -3.2,-0.06 -4.8,-0.06l-0.06 0c-1.6,0 -3.19,0.06 -4.79,0.06l-288.38 0c-2542.69,0 -4663.01,1898.93 -5013.76,4348.61 -69.38,344.39 -106.03,700.26 -106.03,1064.29l0 34603.52 5119.79 0 293.23 0 21912.51 0 0.06 0 237.41 0c2183.39,0 4055.45,-1400.16 4763.08,-3346.87 265.45,-637.45 412.47,-1335.36 412.47,-2066.04l0 -43001.94 0 -4717.28 0 -347.81c0,-2785.8 -2279.24,-5065.03 -5065.04,-5065.03l-343.12 0c-1.61,0 -3.2,-0.06 -4.8,-0.06l-0.06 0c-1.6,0 -3.19,0.06 -4.8,0.06l-27437.88 0 0 5065.09c0,2785.8 2279.25,5065.03 5065.05,5065.03zm62482.38 8398.43l-343.08 0c-1.6,0 -3.19,-0.06 -4.8,-0.06l-0.05 0c-1.61,0 -3.2,0.06 -4.8,0.06l-16329.54 0 0 -13115.71c0,-2977.1 -2435.81,-5412.9 -5412.97,-5412.9l-0.05 0c-2977.16,0 -5412.96,2435.8 -5412.96,5412.9l0 18180.75 0 0.05 0 29538.42c0,2977.1 2435.8,5412.91 5412.96,5412.91l5413.02 0 0 -29886.29 10921.38 0 0 29886.29 5413.01 0c2977.16,0 5412.97,-2435.81 5412.97,-5412.96l0 -29190.56c0,-59.22 -1.31,-118.15 -3.23,-176.93 1.91,-56.76 3.23,-113.67 3.23,-170.88l0 -0.05c0,-2785.8 -2279.3,-5065.04 -5065.09,-5065.04zm-56604.3 29886.29l11086.59 0 0 -19756.16 -11086.59 0 0 19756.16zm-17897.99 10130.13l-5413.02 0c-2977.16,0 -5412.96,-2435.81 -5412.96,-5412.96l0 -24473.33 -10919.21 0 0 24473.33c0,2977.15 -2435.81,5412.96 -5412.96,5412.96l-0.06 0c-2977.15,0 -5412.96,-2435.81 -5412.96,-5412.96l0 -24473.33 -10863.5 0 0 24473.33c0,2977.15 -2435.81,5412.96 -5412.96,5412.96l-5413.02 0 0 -34603.52c0,-46.34 0.59,-92.57 1.76,-138.65l0.01 -0.5 0.01 -0.13c1.17,-45.97 2.93,-91.8 5.27,-137.48l0.08 -1.61c2.32,-45.21 5.2,-90.28 8.64,-135.2l0.24 -3c3.43,-44.44 7.39,-88.72 11.89,-132.85l0.45 -4.31c4.5,-43.68 9.51,-87.22 15.04,-130.59l0.74 -5.73c5.53,-42.91 11.56,-85.68 18.09,-128.29l1.04 -6.69c6.53,-42.26 13.55,-84.36 21.07,-126.29l1.41 -7.81c7.52,-41.6 15.5,-83.03 23.97,-124.31l0.02 -0.07 0.01 -0.03c359.06,-2440.38 2475,-4329.36 5011.05,-4329.36l287.37 0 0.08 0 0.07 0 0.08 0 0.07 0 0.08 0 0.07 0 0.23 0 0.07 0 0.08 0 0.07 0 0.3 -0.01 0.08 0 0.07 0 0.08 0 0.14 -0.01 0.08 0 0.08 0 0.07 0 0.07 0 0.08 0 0.08 0 0.07 0 0.07 0 0.08 -0.01 0.08 0 0.07 0 0.07 0 0.08 0 0.08 0 0.07 0 0.07 0 0.08 0 0.08 -0.01 0.07 0 0.07 0 0.08 0 0.08 0 0.14 -0.01 0.08 0 0.08 0 0.07 0 0.3 0 0.07 0 0.08 0 0.08 0 0.22 -0.01 0.08 0 0.07 0 0.07 0 0.08 0 0.08 0 0.07 0 5413.02 0 0 0.06 16271.66 0c1.61,0 3.2,-0.06 4.8,-0.06l0.06 0c1.6,0 3.19,0.06 4.8,0.06l16327.37 0 0 -0.06 5413.01 0c1.61,0 3.2,0.06 4.8,0.06l287.43 0c2536.42,0 4652.61,1889.54 5011.21,4330.45 71.77,350.01 109.53,712.03 109.53,1082.45l0 34603.52z"/>
 </g>
</svg>
