<?xml version="1.0" encoding="UTF-8"?>
<!DOCTYPE svg PUBLIC "-//W3C//DTD SVG 1.1//EN" "http://www.w3.org/Graphics/SVG/1.1/DTD/svg11.dtd">
<!-- Creator: CorelDRAW 2017 -->
<svg xmlns="http://www.w3.org/2000/svg" xml:space="preserve" width="1687px" height="531px" version="1.1" style="shape-rendering:geometricPrecision; text-rendering:geometricPrecision; image-rendering:optimizeQuality; fill-rule:evenodd; clip-rule:evenodd"
viewBox="0 0 930.7 292.66"
 xmlns:xlink="http://www.w3.org/1999/xlink">
 <defs>
  <style type="text/css">
   <![CDATA[
    .fil0 {fill:#E62129}
    .fil1 {fill:#FEFEFE}
   ]]>
  </style>
 </defs>
 <g id="Layer_x0020_1">
  <metadata id="CorelCorpID_0Corel-Layer"/>
  <g id="_1742059602384">
   <path class="fil0" d="M230.35 211.37l24.02 0c17.8,0 32.37,-14.41 32.37,-32.01l0 -53.39c0,-17.6 -14.57,-32 -32.37,-32l-17.01 0 -7.55 -41.76c-2,-11.1 -12.83,-20.18 -24.06,-20.18l-105.39 0 -0.41 -2.27c-2.96,-16.37 8.16,-29.76 24.71,-29.76l97.53 0c16.55,0 32.51,13.39 35.47,29.76l6.32 34.94 6.25 0c26.61,0 48.37,21.53 48.37,47.83l0 79.8c0,26.3 -21.76,47.83 -48.37,47.83l-53.91 0c-21.18,31.66 -57.26,52.5 -98.22,52.5 -65.22,0 -118.1,-52.87 -118.1,-118.1 0,-65.23 52.88,-118.1 118.1,-118.1 65.23,0 118.11,52.87 118.11,118.1 0,12.85 -2.06,25.22 -5.86,36.81l0 0 0 0zm248.33 -118.46l-11.41 0 0 -44.57 12.71 0c4.97,0 8.46,0.24 10.47,0.73 2.01,0.49 3.71,1.32 5.11,2.49 1.65,1.37 2.9,3.07 3.76,5.1 0.87,2.05 1.29,4.31 1.29,6.81 0,2.66 -0.42,4.99 -1.27,7.01 -0.86,2.02 -2.11,3.68 -3.78,4.98 -1.25,0.97 -2.74,1.67 -4.44,2.09 -1.71,0.43 -4.44,0.65 -8.19,0.65l-2.07 0 -2.18 0 0 14.71 0 0 0 0zm0 -24.5l2.31 0c2.92,0 4.96,-0.4 6.11,-1.2 1.15,-0.8 1.73,-2.16 1.73,-4.1 0,-1.87 -0.57,-3.19 -1.7,-3.98 -1.13,-0.79 -3.15,-1.19 -6.03,-1.19l-2.42 0 0 10.47 0 0 0 0zm28.09 24.5l0 -44.57 12.15 0 0 17.33 16.21 0 0 -17.33 12.15 0 0 44.57 -12.15 0 0 -18.14 -16.21 0 0 18.14 -12.15 0zm95.72 -22.19c0,3.21 -0.59,6.21 -1.76,9 -1.18,2.81 -2.89,5.31 -5.14,7.53 -2.28,2.19 -4.88,3.87 -7.8,5.07 -2.91,1.18 -5.95,1.77 -9.08,1.77 -3.19,0 -6.24,-0.59 -9.16,-1.77 -2.9,-1.2 -5.46,-2.88 -7.67,-5.07 -2.3,-2.22 -4.03,-4.73 -5.23,-7.56 -1.18,-2.81 -1.77,-5.8 -1.77,-8.97 0,-3.19 0.59,-6.18 1.77,-9 1.2,-2.8 2.93,-5.32 5.23,-7.53 2.21,-2.19 4.77,-3.87 7.67,-5.07 2.92,-1.18 5.97,-1.78 9.16,-1.78 3.15,0 6.21,0.6 9.14,1.78 2.93,1.2 5.5,2.88 7.74,5.07 2.23,2.19 3.94,4.7 5.13,7.52 1.18,2.82 1.77,5.82 1.77,9.01zm-23.8 13.09c3.36,0 6.15,-1.24 8.35,-3.71 2.2,-2.49 3.3,-5.61 3.3,-9.38 0,-3.73 -1.11,-6.85 -3.34,-9.35 -2.24,-2.49 -5.01,-3.74 -8.31,-3.74 -3.37,0 -6.15,1.25 -8.35,3.73 -2.21,2.48 -3.31,5.61 -3.31,9.36 0,3.81 1.08,6.95 3.25,9.4 2.17,2.46 4.98,3.69 8.41,3.69l0 0zm36.74 9.1l0 -34.03 -9.97 0 0 -10.54 32.09 0 0 10.54 -9.97 0 0 34.03 -12.15 0 0 0zm72.71 -22.19c0,3.21 -0.59,6.21 -1.77,9 -1.17,2.81 -2.88,5.31 -5.14,7.53 -2.27,2.19 -4.87,3.87 -7.79,5.07 -2.92,1.18 -5.95,1.77 -9.09,1.77 -3.18,0 -6.24,-0.59 -9.15,-1.77 -2.91,-1.2 -5.46,-2.88 -7.68,-5.07 -2.29,-2.22 -4.02,-4.73 -5.22,-7.56 -1.18,-2.81 -1.78,-5.8 -1.78,-8.97 0,-3.19 0.6,-6.18 1.78,-9 1.2,-2.8 2.93,-5.32 5.22,-7.53 2.22,-2.19 4.77,-3.87 7.68,-5.07 2.91,-1.18 5.97,-1.78 9.15,-1.78 3.16,0 6.21,0.6 9.15,1.78 2.92,1.2 5.5,2.88 7.73,5.07 2.24,2.19 3.94,4.7 5.13,7.52 1.19,2.82 1.78,5.82 1.78,9.01l0 0zm-23.81 13.09c3.37,0 6.15,-1.24 8.36,-3.71 2.2,-2.49 3.3,-5.61 3.3,-9.38 0,-3.73 -1.12,-6.85 -3.35,-9.35 -2.23,-2.49 -5,-3.74 -8.31,-3.74 -3.36,0 -6.15,1.25 -8.35,3.73 -2.2,2.48 -3.3,5.61 -3.3,9.36 0,3.81 1.08,6.95 3.25,9.4 2.17,2.46 4.97,3.69 8.4,3.69l0 0zm-546.23 10.98c44.06,0 79.77,35.71 79.77,79.77 0,44.05 -35.71,79.77 -79.77,79.77 -44.05,0 -79.77,-35.72 -79.77,-79.77 0,-44.06 35.72,-79.77 79.77,-79.77zm6.98 19.52c2.18,0 4.33,0.11 6.45,0.32l-6.15 28.5c-0.1,0 -0.2,0 -0.3,0 -18.71,0 -33.88,15.17 -33.88,33.87 0,8.13 2.87,15.59 7.64,21.42l-18.18 22.83c-11.29,-11.34 -18.28,-26.98 -18.28,-44.25 0,-34.62 28.08,-62.69 62.7,-62.69l0 0 0 0z"/>
   <path class="fil1" d="M359.83 63.39l16.4 0 57.43 0 0 15.35c0,8.44 -6.9,15.35 -15.35,15.35l-42.08 0 0 130.34c0,9.02 -7.38,16.4 -16.4,16.4l-16.41 0 0 -161.04c0,-2.23 0.45,-4.37 1.27,-6.32 2.16,-5.87 7.82,-10.08 14.42,-10.08l0.72 0 0 0zm41.02 56.16l16.41 0c9.02,0 16.4,7.38 16.4,16.4l0 74.18 33.61 0 0 -74.18c0,-9.02 7.38,-16.4 16.41,-16.4l16.4 0 0 104.88c0,2.21 -0.45,4.33 -1.25,6.26 -2.14,5.9 -7.82,10.14 -14.44,10.14l-0.71 0 -16.41 0 -33.61 0 0 0 -16.4 0c-0.01,0 -0.01,0 -0.02,0l-0.87 0c-7.71,0 -14.14,-5.75 -15.2,-13.18 -0.21,-1.04 -0.32,-2.12 -0.32,-3.22l0 -104.88zm325.11 -25.46l51.42 0 0 25.46 -50 0c0,0 0,0 -0.01,0l0 0c0,0 -0.01,0 -0.02,0l-0.87 0c-7.71,0 -14.13,5.75 -15.19,13.18 -0.22,1.04 -0.33,2.12 -0.33,3.22l0 104.88 15.52 0 0.89 0 66.41 0 0 0 0.73 0c6.61,0 12.29,-4.24 14.43,-10.14 0.81,-1.93 1.25,-4.05 1.25,-6.26l0 -130.34 0 -14.3 0 -1.05c0,-8.44 -6.91,-15.35 -15.35,-15.35l-1.04 0c0,0 -0.01,0 -0.02,0l0 0c0,0 0,0 -0.01,0l-83.16 0 0 15.35c0,8.44 6.91,15.35 15.35,15.35l0 0zm189.38 25.46l-1.04 0c0,0 -0.01,0 -0.01,0l0 0c-0.01,0 -0.01,0 -0.02,0l-49.49 0 0 -39.76c0,-9.02 -7.38,-16.4 -16.41,-16.4l0 0c-9.02,0 -16.4,7.38 -16.4,16.4l0 55.11 0 0 0 89.53c0,9.02 7.38,16.41 16.4,16.41l16.41 0 0 -90.59 33.1 0 0 90.59 16.41 0c9.02,0 16.41,-7.39 16.41,-16.41l0 -88.48c0,-0.18 -0.01,-0.36 -0.02,-0.53 0.01,-0.18 0.02,-0.35 0.02,-0.52l0 0c0,-8.45 -6.91,-15.35 -15.36,-15.35l0 0 0 0zm-171.56 90.58l33.6 0 0 -59.88 -33.6 0 0 59.88zm-54.25 30.7l-16.41 0c-9.02,0 -16.41,-7.38 -16.41,-16.4l0 -74.18 -33.09 0 0 74.18c0,9.02 -7.38,16.4 -16.41,16.4l0 0c-9.02,0 -16.4,-7.38 -16.4,-16.4l0 -74.18 -32.93 0 0 74.18c0,9.02 -7.38,16.4 -16.41,16.4l-16.4 0 0 -104.88c0,-0.14 0,-0.28 0,-0.42l0 0 0 0c0,-0.14 0.01,-0.28 0.02,-0.42l0 0c0,-0.14 0.01,-0.27 0.02,-0.41l0 -0.01c0.02,-0.14 0.03,-0.27 0.04,-0.4l0 -0.01c0.02,-0.14 0.03,-0.27 0.05,-0.4l0 -0.02c0.01,-0.13 0.03,-0.26 0.06,-0.39l0 -0.02c0.02,-0.13 0.04,-0.26 0.06,-0.38l0.01 -0.02c0.02,-0.13 0.04,-0.26 0.07,-0.38l0 0 0 0c1.09,-7.4 7.5,-13.12 15.19,-13.12l0.87 0 0 0 0 0 0 0 0 0 0 0 0 0 0 0 0 0 0 0 0 0 0 0 0 0 0 0 0 0 0 0 0 0 0 0 0 0 0 0 0 0 0 0 0 0 0 0 0 0 0 0 0 0 0 0 0 0 0 0 0 0 0 0 0 0 0.01 0 0 0 0 0 0 0 0 0 0 0 0 0 0 0 0 0 0 0 0 0 0 0 0 0 0 0 0 0 0 0 0 0 0 0 0 0 0 0 16.41 0 0 0 49.32 0c0,0 0.01,0 0.01,0l0 0c0.01,0 0.01,0 0.02,0l49.48 0 0 0 16.41 0c0.01,0 0.01,0 0.02,0l0.87 0c7.69,0 14.1,5.72 15.19,13.12 0.21,1.06 0.33,2.16 0.33,3.28l0 104.88 0 0 0 0z"/>
  </g>
 </g>
</svg>
