<?xml version="1.0" encoding="UTF-8"?>
<!DOCTYPE svg PUBLIC "-//W3C//DTD SVG 1.1//EN" "http://www.w3.org/Graphics/SVG/1.1/DTD/svg11.dtd">
<!-- Creator: CorelDRAW 2017 -->
<svg xmlns="http://www.w3.org/2000/svg" xml:space="preserve" width="1651px" height="781px" version="1.1" style="shape-rendering:geometricPrecision; text-rendering:geometricPrecision; image-rendering:optimizeQuality; fill-rule:evenodd; clip-rule:evenodd"
viewBox="0 0 813.15 384.81"
 xmlns:xlink="http://www.w3.org/1999/xlink">
 <defs>
  <style type="text/css">
   <![CDATA[
    .fil0 {fill:none}
    .fil1 {fill:#E62129}
    .fil2 {fill:#FEFEFE}
   ]]>
  </style>
 </defs>
 <g id="Layer_x0020_1">
  <metadata id="CorelCorpID_0Corel-Layer"/>
  <rect class="fil0" width="813.15" height="384.81"/>
  <g id="_1742067945312">
   <path class="fil1" d="M236.29 223.96l17.41 0c12.9,0 23.45,-10.43 23.45,-23.19l0 -38.69c0,-12.75 -10.55,-23.19 -23.45,-23.19l-12.32 0 -5.47 -30.26c-1.46,-8.04 -9.3,-14.62 -17.44,-14.62l-76.37 0 -0.29 -1.65c-2.15,-11.85 5.91,-21.56 17.9,-21.56l70.67 0c11.99,0 23.56,9.71 25.71,21.56l4.57 25.33 4.53 0c19.28,0 35.05,15.59 35.05,34.65l0 57.83c0,19.06 -15.77,34.65 -35.05,34.65l-39.06 0c-15.35,22.94 -41.49,38.05 -71.17,38.05 -47.26,0 -85.58,-38.32 -85.58,-85.58 0,-47.26 38.32,-85.58 85.58,-85.58 47.26,0 85.58,38.32 85.58,85.58 0,9.31 -1.5,18.28 -4.25,26.67l0 0 0 0zm179.94 -85.83l-8.26 0 0 -32.3 9.21 0c3.6,0 6.13,0.18 7.59,0.53 1.45,0.36 2.68,0.96 3.7,1.81 1.19,0.98 2.1,2.22 2.73,3.69 0.62,1.49 0.93,3.13 0.93,4.93 0,1.93 -0.31,3.62 -0.93,5.08 -0.62,1.47 -1.53,2.67 -2.73,3.61 -0.91,0.71 -1.99,1.21 -3.22,1.52 -1.24,0.31 -3.21,0.47 -5.93,0.47l-1.5 0 -1.59 0 0 10.66 0 0 0 0zm0 -17.75l1.68 0c2.12,0 3.59,-0.3 4.43,-0.88 0.83,-0.58 1.25,-1.56 1.25,-2.96 0,-1.36 -0.41,-2.32 -1.23,-2.89 -0.82,-0.58 -2.28,-0.86 -4.37,-0.86l-1.76 0 0 7.59 0 0 0 0zm20.36 17.75l0 -32.3 8.81 0 0 12.56 11.74 0 0 -12.56 8.81 0 0 32.3 -8.81 0 0 -13.15 -11.74 0 0 13.15 -8.81 0zm69.36 -16.08c0,2.32 -0.43,4.5 -1.28,6.52 -0.85,2.03 -2.09,3.85 -3.72,5.45 -1.65,1.59 -3.53,2.81 -5.65,3.68 -2.11,0.85 -4.31,1.28 -6.58,1.28 -2.31,0 -4.53,-0.43 -6.64,-1.28 -2.1,-0.87 -3.95,-2.09 -5.56,-3.68 -1.66,-1.6 -2.92,-3.42 -3.78,-5.47 -0.86,-2.04 -1.29,-4.21 -1.29,-6.5 0,-2.31 0.43,-4.48 1.29,-6.52 0.86,-2.03 2.12,-3.85 3.78,-5.46 1.61,-1.59 3.46,-2.81 5.56,-3.67 2.11,-0.86 4.33,-1.29 6.64,-1.29 2.28,0 4.5,0.43 6.62,1.29 2.12,0.86 3.99,2.08 5.61,3.67 1.62,1.59 2.85,3.4 3.71,5.45 0.86,2.04 1.29,4.22 1.29,6.53zm-17.25 9.48c2.44,0 4.46,-0.89 6.05,-2.69 1.6,-1.8 2.4,-4.06 2.4,-6.79 0,-2.71 -0.81,-4.96 -2.43,-6.78 -1.62,-1.8 -3.62,-2.71 -6.02,-2.71 -2.44,0 -4.46,0.91 -6.05,2.71 -1.6,1.79 -2.39,4.06 -2.39,6.78 0,2.76 0.78,5.03 2.35,6.81 1.57,1.78 3.61,2.67 6.09,2.67l0 0zm26.62 6.6l0 -24.66 -7.22 0 0 -7.64 23.26 0 0 7.64 -7.23 0 0 24.66 -8.81 0 0 0zm52.69 -16.08c0,2.32 -0.43,4.5 -1.28,6.52 -0.85,2.03 -2.09,3.85 -3.72,5.45 -1.65,1.59 -3.53,2.81 -5.65,3.68 -2.11,0.85 -4.31,1.28 -6.59,1.28 -2.3,0 -4.52,-0.43 -6.63,-1.28 -2.1,-0.87 -3.96,-2.09 -5.56,-3.68 -1.66,-1.6 -2.92,-3.42 -3.78,-5.47 -0.86,-2.04 -1.29,-4.21 -1.29,-6.5 0,-2.31 0.43,-4.48 1.29,-6.52 0.86,-2.03 2.12,-3.85 3.78,-5.46 1.6,-1.59 3.46,-2.81 5.56,-3.67 2.11,-0.86 4.33,-1.29 6.63,-1.29 2.29,0 4.51,0.43 6.63,1.29 2.12,0.86 3.99,2.08 5.61,3.67 1.62,1.59 2.85,3.4 3.71,5.45 0.86,2.04 1.29,4.22 1.29,6.53l0 0zm-17.25 9.48c2.44,0 4.46,-0.89 6.05,-2.69 1.6,-1.8 2.4,-4.06 2.4,-6.79 0,-2.71 -0.81,-4.96 -2.43,-6.78 -1.62,-1.8 -3.63,-2.71 -6.02,-2.71 -2.44,0 -4.46,0.91 -6.05,2.71 -1.6,1.79 -2.4,4.06 -2.4,6.78 0,2.76 0.79,5.03 2.36,6.81 1.57,1.78 3.61,2.67 6.09,2.67l0 0zm-395.8 7.96c31.92,0 57.8,25.88 57.8,57.8 0,31.92 -25.88,57.8 -57.8,57.8 -31.92,0 -57.8,-25.88 -57.8,-57.8 0,-31.92 25.88,-57.8 57.8,-57.8zm5.06 14.14c1.57,0 3.13,0.08 4.67,0.24l-4.46 20.65c-0.07,0 -0.14,-0.01 -0.21,-0.01 -13.56,0 -24.55,11 -24.55,24.55 0,5.89 2.07,11.29 5.53,15.52l-13.17 16.54c-8.18,-8.21 -13.24,-19.55 -13.24,-32.06 0,-25.09 20.34,-45.43 45.43,-45.43l0 0 0 0z"/>
   <path class="fil2" d="M330.11 116.73l11.89 0 41.62 0 0 11.13c0,6.12 -5.01,11.12 -11.13,11.12l-30.49 0 0 94.44c0,6.54 -5.35,11.89 -11.88,11.89l-11.89 0 0 -116.69c0,-1.62 0.33,-3.16 0.92,-4.58 1.56,-4.25 5.66,-7.3 10.44,-7.3l0.52 0 0 -0.01zm29.73 40.7l11.89 0c6.54,0 11.89,5.35 11.89,11.89l0 53.75 24.35 0 0 -53.76c0,-6.53 5.35,-11.88 11.89,-11.88l11.88 0 0 75.99c0,1.61 -0.32,3.14 -0.9,4.54 -1.56,4.28 -5.67,7.35 -10.46,7.35l-0.52 0 -11.89 0 -24.35 0 0 0 -11.89 0c0,0 -0.01,0 -0.01,0l-0.63 0c-5.59,0 -10.25,-4.17 -11.02,-9.55 -0.15,-0.76 -0.23,-1.54 -0.23,-2.34l0 -75.99zm235.58 -18.45l37.25 0 0 18.45 -36.22 0c0,0 -0.01,0 -0.01,0l0 0c-0.01,0 -0.01,0 -0.01,0l-0.64 0c-5.58,0 -10.24,4.17 -11.01,9.55 -0.15,0.75 -0.23,1.54 -0.23,2.34l0 75.99 11.24 0 0.65 0 48.12 0 0 0 0.52 0c4.8,0 8.91,-3.07 10.47,-7.35 0.58,-1.4 0.9,-2.93 0.9,-4.54l0 -94.44 0 -10.36 0 -0.76c0,-6.12 -5,-11.13 -11.12,-11.13l-0.76 0c0,0 0,0 -0.01,0l0 0c0,0 0,0 -0.01,0l-60.26 0 0 11.13c0,6.12 5.01,11.12 11.13,11.12l0 0zm137.22 18.45l-0.75 0c0,0 -0.01,0 -0.01,0l0 0c0,0 -0.01,0 -0.01,0l-35.87 0 0 -28.81c0,-6.54 -5.34,-11.88 -11.88,-11.88l0 0c-6.54,0 -11.89,5.34 -11.89,11.88l0 39.93 0 0 0 64.87c0,6.54 5.35,11.89 11.89,11.89l11.88 0 0 -65.63 23.99 0 0 65.63 11.89 0c6.54,0 11.89,-5.35 11.89,-11.89l0 -64.1c0,-0.14 0,-0.26 -0.01,-0.39 0.01,-0.13 0.01,-0.25 0.01,-0.38l0 0c0,-6.12 -5.01,-11.12 -11.13,-11.12l0 0 0 0zm-124.31 65.64l24.34 0 0 -43.39 -24.34 0 0 43.39zm-39.31 22.24l-11.89 0c-6.54,0 -11.89,-5.35 -11.89,-11.89l0 -53.74 -23.98 0 0 53.74c0,6.54 -5.35,11.89 -11.89,11.89l0 0c-6.54,0 -11.89,-5.35 -11.89,-11.89l0 -53.74 -23.86 0 0 53.74c0,6.54 -5.35,11.89 -11.88,11.89l-11.89 0 0 -75.99c0,-0.11 0,-0.21 0,-0.31l0 0 0 0c0,-0.1 0.01,-0.2 0.01,-0.3l0 -0.01c0.01,-0.1 0.01,-0.19 0.02,-0.29l0 -0.01c0.01,-0.1 0.02,-0.19 0.03,-0.29l0 -0.01c0.01,-0.1 0.02,-0.19 0.03,-0.29l0 -0.01c0.02,-0.09 0.03,-0.19 0.04,-0.28l0.01 -0.02c0.01,-0.09 0.03,-0.18 0.04,-0.27l0.01 -0.02c0.01,-0.09 0.03,-0.18 0.05,-0.27l0 0 0 0c0.79,-5.36 5.43,-9.51 11,-9.51l0.63 0 0.01 0 0 0 0 0 0 0 0 0 0 0 0 0 0 0 0 0 0 0 0 0 0 0 0 0 0 0 0 0 0 0 0 0 0 0 0 0 0 0 0 0 0 0 0 0 0 0 0 0 0 0 0 0 0 0 0 0 0 0 0 0 0 0 0 0 0 0 0 0 0 0 0 0 0 0 0 0 0 0 0 0 0 0 0 0 0 0 0 0 0 0 0 0 0 0 0 0 0 0 0.01 0 0 0 11.88 0 0 0 35.74 0c0,0 0.01,0 0.01,0l0 0c0,0 0.01,0 0.01,0l35.86 0 0 0 11.89 0c0,0 0.01,0 0.01,0l0.63 0c5.57,0 10.22,4.15 11.01,9.51 0.16,0.77 0.24,1.56 0.24,2.38l0 75.99 0 0 0 0z"/>
  </g>
 </g>
</svg>
